<svg xmlns="http://www.w3.org/2000/svg" width="1280" height="320" viewBox="0 0 1280 320"><rect width="1280" height="320" rx="18" fill="#070e0b"/><path d="M0 319h1280" stroke="#70efad" stroke-width="4"/><g fill="none" stroke="#234b36"><path d="M900 0v320m80-320v320m80-320v320m80-320v320m80-320v320M850 80h430M850 160h430M850 240h430"/><circle cx="1070" cy="160" r="110"/><circle cx="1070" cy="160" r="75"/></g><g fill="none" stroke="#70efad" stroke-width="2"><ellipse cx="1070" cy="160" rx="88" ry="48" transform="rotate(-30 1070 160)"/><ellipse cx="1070" cy="160" rx="88" ry="48" transform="rotate(30 1070 160)"/></g><circle cx="1070" cy="160" r="7" fill="#70efad"/><text x="65" y="73" font-family="Arial,sans-serif" font-size="14" letter-spacing="4" fill="#70efad">SAGAR KC / PROGRAMMING PORTFOLIO</text><text x="60" y="169" font-family="Arial,sans-serif" font-size="62" font-weight="700" fill="#f5f6fa">Weather Explorer</text><text x="65" y="218" font-family="Arial,sans-serif" font-size="23" fill="#a9b0be">Your city. Your daily outlook.</text><rect x="65" y="255" width="42" height="5" rx="2" fill="#70efad"/></svg>